<mxfile host="65bd71144e" modified="2021-02-22T15:24:35.450Z" agent="5.0 (Windows NT 10.0; Win64; x64) AppleWebKit/537.36 (KHTML, like Gecko) Code/1.53.2 Chrome/87.0.4280.141 Electron/11.2.1 Safari/537.36" etag="ErzJCd83BF84tScmmWFM" version="14.2.4" type="embed">
    <diagram id="R1BNs-aJe2xmDDyy7_jB" name="Page-1">
        <mxGraphModel dx="762" dy="534" grid="1" gridSize="10" guides="1" tooltips="1" connect="1" arrows="1" fold="1" page="1" pageScale="1" pageWidth="827" pageHeight="1169" math="0" shadow="0">
            <root>
                <mxCell id="0"/>
                <mxCell id="1" parent="0"/>
                <mxCell id="2" value="&lt;p style=&quot;margin: 0px ; margin-top: 4px ; text-align: center&quot;&gt;&lt;i&gt;&amp;lt;&amp;lt;Interface&amp;gt;&amp;gt;&lt;/i&gt;&lt;br&gt;&lt;b&gt;ISubject&lt;/b&gt;&lt;/p&gt;&lt;hr size=&quot;1&quot;&gt;&lt;p style=&quot;margin: 0px ; margin-left: 4px&quot;&gt;+request()&lt;/p&gt;" style="verticalAlign=top;align=left;overflow=fill;fontSize=12;fontFamily=Helvetica;html=1;" parent="1" vertex="1">
                    <mxGeometry x="350" y="330" width="140" height="60" as="geometry"/>
                </mxCell>
                <mxCell id="4" value="&lt;p style=&quot;margin: 0px ; margin-top: 4px ; text-align: center&quot;&gt;&lt;b&gt;Proxy&lt;/b&gt;&lt;/p&gt;&lt;p style=&quot;margin: 0px ; margin-left: 4px&quot;&gt;-_realSubject: RealSubject&lt;/p&gt;&lt;hr size=&quot;1&quot;&gt;&lt;p style=&quot;margin: 0px ; margin-left: 4px&quot;&gt;+ request()&lt;/p&gt;&lt;p style=&quot;margin: 0px ; margin-left: 4px&quot;&gt;+checkAccess():bool&lt;/p&gt;&lt;p style=&quot;margin: 0px ; margin-left: 4px&quot;&gt;+logAccess()&lt;/p&gt;" style="verticalAlign=top;align=left;overflow=fill;fontSize=12;fontFamily=Helvetica;html=1;" parent="1" vertex="1">
                    <mxGeometry x="240" y="440" width="160" height="90" as="geometry"/>
                </mxCell>
                <mxCell id="5" value="&lt;p style=&quot;margin: 0px ; margin-top: 4px ; text-align: center&quot;&gt;&lt;b&gt;RealSubject&lt;/b&gt;&lt;/p&gt;&lt;hr size=&quot;1&quot;&gt;&lt;p style=&quot;margin: 0px ; margin-left: 4px&quot;&gt;+request()&lt;/p&gt;" style="verticalAlign=top;align=left;overflow=fill;fontSize=12;fontFamily=Helvetica;html=1;" parent="1" vertex="1">
                    <mxGeometry x="444" y="460" width="130" height="50" as="geometry"/>
                </mxCell>
                <mxCell id="6" value="" style="endArrow=open;endFill=1;endSize=12;html=1;exitX=1;exitY=0.5;exitDx=0;exitDy=0;entryX=0;entryY=0.5;entryDx=0;entryDy=0;" parent="1" source="4" target="5" edge="1">
                    <mxGeometry width="160" relative="1" as="geometry">
                        <mxPoint x="360" y="420" as="sourcePoint"/>
                        <mxPoint x="520" y="420" as="targetPoint"/>
                    </mxGeometry>
                </mxCell>
                <mxCell id="7" value="" style="endArrow=block;dashed=1;endFill=0;endSize=12;html=1;exitX=0.5;exitY=0;exitDx=0;exitDy=0;entryX=0.5;entryY=1;entryDx=0;entryDy=0;" parent="1" source="4" target="2" edge="1">
                    <mxGeometry width="160" relative="1" as="geometry">
                        <mxPoint x="360" y="420" as="sourcePoint"/>
                        <mxPoint x="520" y="420" as="targetPoint"/>
                        <Array as="points">
                            <mxPoint x="320" y="420"/>
                            <mxPoint x="420" y="420"/>
                        </Array>
                    </mxGeometry>
                </mxCell>
                <mxCell id="8" value="" style="endArrow=block;dashed=1;endFill=0;endSize=12;html=1;exitX=0.5;exitY=0;exitDx=0;exitDy=0;entryX=0.5;entryY=1;entryDx=0;entryDy=0;" parent="1" source="5" target="2" edge="1">
                    <mxGeometry width="160" relative="1" as="geometry">
                        <mxPoint x="330" y="450" as="sourcePoint"/>
                        <mxPoint x="430" y="410" as="targetPoint"/>
                        <Array as="points">
                            <mxPoint x="509" y="420"/>
                            <mxPoint x="420" y="420"/>
                        </Array>
                    </mxGeometry>
                </mxCell>
                <mxCell id="9" value="&lt;b&gt;Client&lt;/b&gt;" style="html=1;" parent="1" vertex="1">
                    <mxGeometry x="240" y="347.5" width="80" height="25" as="geometry"/>
                </mxCell>
                <mxCell id="10" value="" style="endArrow=open;endFill=1;endSize=12;html=1;exitX=1;exitY=0.5;exitDx=0;exitDy=0;entryX=0;entryY=0.5;entryDx=0;entryDy=0;" parent="1" source="9" target="2" edge="1">
                    <mxGeometry width="160" relative="1" as="geometry">
                        <mxPoint x="360" y="420" as="sourcePoint"/>
                        <mxPoint x="520" y="420" as="targetPoint"/>
                    </mxGeometry>
                </mxCell>
            </root>
        </mxGraphModel>
    </diagram>
</mxfile>